{"title":"Carly Simon Live From Martha's Vinyard (1987)","uid":9118103,"size":281127684,"categoryP":"video","categoryS":"music_videos","magnet":"?xt=urn:btih:65a4c9dd77e0d39f5524b6e55634eeeb11c61943&amp;dn=Carly+Simon+Live+From+Martha%27s+Vinyard+%281987%29&amp;tr=udp%3A%2F%2Ftracker.openbittorrent.com%3A80&amp;tr=udp%3A%2F%2Fopen.demonii.com%3A1337&amp;tr=udp%3A%2F%2Ftracker.coppersurfer.tk%3A6969&amp;tr=udp%3A%2F%2Fexodus.desync.com%3A6969","seeders":1,"leechers":0,"uploader":"user101966","files":3,"time":1383068928,"description":"Carly Simon Live From Martha's Vinyard 1987.\n\nSelected singles:\n\n1. You're So Vain\n2. Nobody Does It Better\n3. You Belong To Me\n\n\nI extracted and converted these to 720p XViD avis hoping to upload the higher quality ones to some site called &quot;YouDontTubeMusicOrElse.com&quot;.\n\nThat had the effect of having my account automatically deleted.\n\nSo here they are, the 3 songs listed, in this approximate format:\n\nFormat                                   : AVI\nFormat/Info                              : Audio Video Interleave\nFile size                                : 78.9 MiB\nDuration                                 : 3mn 42s\nOverall bit rate mode                    : Variable\nOverall bit rate                         : 2 972 Kbps\nWriting application                      : VirtualDubMod 1.5.4.1 (build 2178/release)\nWriting library                          : VirtualDub build 32842/release\n\nVideo\nID                                       : 0\nFormat                                   : MPEG-4 Visual\nFormat profile                           : Advanced Simple@L5\nFormat settings, BVOP                    : 1\nFormat settings, QPel                    : No\nFormat settings, GMC                     : No warppoints\nFormat settings, Matrix                  : Custom\nCodec ID                                 : XVID\nCodec ID/Hint                            : XviD\nDuration                                 : 3mn 42s\nBit rate                                 : 2 839 Kbps\nWidth                                    : 720 pixels\nHeight                                   : 544 pixels\nDisplay aspect ratio                     : 4:3\nFrame rate                               : 23.976 fps\nColor space                              : YUV\nChroma subsampling                       : 4:2:0\nBit depth                                : 8 bits\nScan type                                : Progressive\nCompression mode                         : Lossy\nBits/(Pixel*Frame)                       : 0.302\nStream size                              : 75.4 MiB (96%)\nWriting library                          : XviD 64\n\nAudio\nID                                       : 1\nFormat                                   : MPEG Audio\nFormat version                           : Version 1\nFormat profile                           : Layer 3\nMode                                     : Joint stereo\nCodec ID                                 : 55\nCodec ID/Hint                            : MP3\nDuration                                 : 3mn 42s\nBit rate mode                            : Variable\nBit rate                                 : 120 Kbps\nChannel(s)                               : 2 channels\nSampling rate                            : 48.0 KHz\nCompression mode                         : Lossy\nStream size                              : 3.19 MiB (4%)\nAlignment                                : Aligned on interleaves\nInterleave, duration                     : 24 ms (0.58 video frame)\nInterleave, preload duration             : 502 ms\n\n","torrent":{"xt":"urn:btih:65a4c9dd77e0d39f5524b6e55634eeeb11c61943","amp;dn":"Carly+Simon+Live+From+Martha%27s+Vinyard+%281987%29","amp;tr":["udp%3A%2F%2Ftracker.openbittorrent.com%3A80","udp%3A%2F%2Fopen.demonii.com%3A1337","udp%3A%2F%2Ftracker.coppersurfer.tk%3A6969","udp%3A%2F%2Fexodus.desync.com%3A6969"],"infoHash":"65a4c9dd77e0d39f5524b6e55634eeeb11c61943","infoHashBuffer":{"type":"Buffer","data":[101,164,201,221,119,224,211,159,85,36,182,229,86,52,238,235,17,198,25,67]},"announce":[],"urlList":[]}}